HIERARCHY
ROOT Hips
{
	OFFSET 0.000000 87.230942 0.000000
	CHANNELS 6 Xposition Yposition Zposition Xrotation Yrotation Zrotation
	JOINT Pelvis
	{
		OFFSET 0.000000 0.000000 0.000000
		CHANNELS 3 Xrotation Yrotation Zrotation
		JOINT LeftUpLeg
		{
			OFFSET 12.017000 -9.376404 -2.439400
			CHANNELS 3 Xrotation Yrotation Zrotation
			JOINT LeftLeg
			{
				OFFSET -0.007312 -32.846973 2.110600
				CHANNELS 3 Xrotation Yrotation Zrotation
				JOINT LeftFoot
				{
					OFFSET 0.007312 -32.065170 -0.570400
					CHANNELS 3 Xrotation Yrotation Zrotation
					JOINT LeftToeBase
					{
						OFFSET 0.728300 -11.045900 13.180700
						CHANNELS 3 Xrotation Yrotation Zrotation
						End Site
						{
							OFFSET 0.000000 17.212589 0.000000
						}
					}
				}
				JOINT LeftPantLeg
				{
					OFFSET 0.002788 -16.709013 -3.143600
					CHANNELS 3 Xrotation Yrotation Zrotation
					End Site
					{
						OFFSET -0.605125 24.528742 0.000000
					}
				}
			}
			JOINT Left_Butt
			{
				OFFSET -6.630234 1.326584 -3.183700
				CHANNELS 3 Xrotation Yrotation Zrotation
				End Site
				{
					OFFSET -0.498041 20.188049 0.000000
				}
			}
		}
		JOINT RightUpLeg
		{
			OFFSET -11.717000 -9.376404 -2.439400
			CHANNELS 3 Xrotation Yrotation Zrotation
			JOINT RightLeg
			{
				OFFSET -0.003241 -32.846912 2.110600
				CHANNELS 3 Xrotation Yrotation Zrotation
				JOINT RightFoot
				{
					OFFSET 0.003241 -32.065136 -0.570500
					CHANNELS 3 Xrotation Yrotation Zrotation
					JOINT RightToeBase
					{
						OFFSET -0.728300 -11.045901 13.180700
						CHANNELS 3 Xrotation Yrotation Zrotation
						End Site
						{
							OFFSET 0.000000 17.212593 0.000000
						}
					}
				}
				JOINT RightPantLeg
				{
					OFFSET 0.008142 -16.708982 -3.143700
					CHANNELS 3 Xrotation Yrotation Zrotation
					End Site
					{
						OFFSET 0.605088 24.528715 0.000000
					}
				}
			}
			JOINT Right_Butt
			{
				OFFSET 6.630732 1.326584 -3.183700
				CHANNELS 3 Xrotation Yrotation Zrotation
				End Site
				{
					OFFSET 0.498015 20.188240 0.000000
				}
			}
		}
	}
	JOINT Spine
	{
		OFFSET -0.062400 7.848404 3.918300
		CHANNELS 3 Xrotation Yrotation Zrotation
		JOINT Spine1
		{
			OFFSET -0.072800 11.422302 0.713400
			CHANNELS 3 Xrotation Yrotation Zrotation
			JOINT Spine2
			{
				OFFSET -0.083200 13.054001 -1.931600
				CHANNELS 3 Xrotation Yrotation Zrotation
				JOINT Neck
				{
					OFFSET -0.092200 14.121796 -5.138800
					CHANNELS 3 Xrotation Yrotation Zrotation
					JOINT Head
					{
						OFFSET 0.000200 10.447403 -0.842000
						CHANNELS 3 Xrotation Yrotation Zrotation
						JOINT Visor
						{
							OFFSET 0.457100 25.671204 16.550400
							CHANNELS 3 Xrotation Yrotation Zrotation
							End Site
							{
								OFFSET 0.000000 26.061493 0.000000
							}
						}
						JOINT HairMidA
						{
							OFFSET 0.459400 31.585403 8.437400
							CHANNELS 3 Xrotation Yrotation Zrotation
							End Site
							{
								OFFSET 0.000000 26.061493 0.000000
							}
						}
						JOINT HairMidB
						{
							OFFSET 0.464000 33.309204 -8.389700
							CHANNELS 3 Xrotation Yrotation Zrotation
							End Site
							{
								OFFSET 0.000000 26.061493 0.000000
							}
						}
						JOINT HairMidC
						{
							OFFSET 0.466600 27.991196 -17.375099
							CHANNELS 3 Xrotation Yrotation Zrotation
							End Site
							{
								OFFSET 0.000000 26.061493 0.000000
							}
						}
						JOINT HairMidD
						{
							OFFSET 0.467700 17.888092 -21.169500
							CHANNELS 3 Xrotation Yrotation Zrotation
							End Site
							{
								OFFSET 0.000000 26.061493 0.000000
							}
						}
						JOINT HairMidE
						{
							OFFSET 5.325700 3.514603 -14.369699
							CHANNELS 3 Xrotation Yrotation Zrotation
							End Site
							{
								OFFSET 0.000000 26.061493 0.000000
							}
						}
						JOINT HairMidF
						{
							OFFSET -4.394100 3.514603 -14.372400
							CHANNELS 3 Xrotation Yrotation Zrotation
							End Site
							{
								OFFSET 0.000000 26.061493 0.000000
							}
						}
						JOINT HairLeftA
						{
							OFFSET 15.319900 25.746506 2.623300
							CHANNELS 3 Xrotation Yrotation Zrotation
							End Site
							{
								OFFSET 0.000000 26.061493 0.000000
							}
						}
						JOINT HairLeftB
						{
							OFFSET 12.619500 29.289398 -8.731499
							CHANNELS 3 Xrotation Yrotation Zrotation
							End Site
							{
								OFFSET 0.000000 26.061493 0.000000
							}
						}
						JOINT HairLeftC
						{
							OFFSET 15.714800 15.959900 2.909800
							CHANNELS 3 Xrotation Yrotation Zrotation
							End Site
							{
								OFFSET 0.000000 26.061493 0.000000
							}
						}
						JOINT HairLeftD
						{
							OFFSET 16.101700 18.437408 -7.553200
							CHANNELS 3 Xrotation Yrotation Zrotation
							End Site
							{
								OFFSET 0.000000 26.061493 0.000000
							}
						}
						JOINT HairLeftE
						{
							OFFSET 9.731900 17.915009 -18.316799
							CHANNELS 3 Xrotation Yrotation Zrotation
							End Site
							{
								OFFSET 0.000000 26.061493 0.000000
							}
						}
						JOINT HairLeftF
						{
							OFFSET 11.204300 4.953598 -9.668100
							CHANNELS 3 Xrotation Yrotation Zrotation
							End Site
							{
								OFFSET 0.000000 26.061493 0.000000
							}
						}
						JOINT HairRightA
						{
							OFFSET -14.397900 25.746307 2.615100
							CHANNELS 3 Xrotation Yrotation Zrotation
							End Site
							{
								OFFSET 0.000000 26.061493 0.000000
							}
						}
						JOINT HairRightB
						{
							OFFSET -11.691200 29.289200 -8.738199
							CHANNELS 3 Xrotation Yrotation Zrotation
							End Site
							{
								OFFSET 0.000000 26.061493 0.000000
							}
						}
						JOINT HairRightC
						{
							OFFSET -14.792900 15.959702 2.901400
							CHANNELS 3 Xrotation Yrotation Zrotation
							End Site
							{
								OFFSET 0.000000 26.061493 0.000000
							}
						}
						JOINT HairRightD
						{
							OFFSET -15.174000 18.437195 -7.561900
							CHANNELS 3 Xrotation Yrotation Zrotation
							End Site
							{
								OFFSET 0.000000 26.061493 0.000000
							}
						}
						JOINT HairRightE
						{
							OFFSET -8.798200 17.914902 -18.322001
							CHANNELS 3 Xrotation Yrotation Zrotation
							End Site
							{
								OFFSET 0.000000 26.061493 0.000000
							}
						}
						JOINT HairRightF
						{
							OFFSET -10.275200 4.953506 -9.674099
							CHANNELS 3 Xrotation Yrotation Zrotation
							End Site
							{
								OFFSET 0.000000 26.061493 0.000000
							}
						}
					}
				}
				JOINT LeftShoulder
				{
					OFFSET 5.133500 7.341202 -1.867600
					CHANNELS 3 Xrotation Yrotation Zrotation
					JOINT LeftArm
					{
						OFFSET 8.072663 0.936867 -2.176600
						CHANNELS 3 Xrotation Yrotation Zrotation
						JOINT LeftForeArm
						{
							OFFSET 31.271999 0.000000 0.000000
							CHANNELS 3 Xrotation Yrotation Zrotation
							JOINT LeftHand
							{
								OFFSET 31.771030 0.000000 0.000000
								CHANNELS 3 Xrotation Yrotation Zrotation
								JOINT LeftHandThumb1
								{
									OFFSET 2.886520 -2.557846 4.416640
									CHANNELS 3 Xrotation Yrotation Zrotation
									JOINT LeftHandThumb2
									{
										OFFSET 2.371025 -1.368912 1.368911
										CHANNELS 3 Xrotation Yrotation Zrotation
										JOINT LeftHandThumb3
										{
											OFFSET 2.243378 -1.295212 1.295213
											CHANNELS 3 Xrotation Yrotation Zrotation
											End Site
											{
												OFFSET -0.332611 2.876945 0.020015
											}
										}
									}
								}
								JOINT LeftHandIndex1
								{
									OFFSET 8.568985 -0.641945 3.119977
									CHANNELS 3 Xrotation Yrotation Zrotation
									JOINT LeftHandIndex2
									{
										OFFSET 3.348503 0.000000 0.000000
										CHANNELS 3 Xrotation Yrotation Zrotation
										JOINT LeftHandIndex3
										{
											OFFSET 3.314552 0.000000 0.000000
											CHANNELS 3 Xrotation Yrotation Zrotation
											End Site
											{
												OFFSET -1.032898 3.075485 0.678796
											}
										}
									}
								}
								JOINT LeftHandMiddle1
								{
									OFFSET 8.124603 0.000000 0.000000
									CHANNELS 3 Xrotation Yrotation Zrotation
									JOINT LeftHandMiddle2
									{
										OFFSET 4.166275 0.000000 0.000000
										CHANNELS 3 Xrotation Yrotation Zrotation
										JOINT LeftHandMiddle3
										{
											OFFSET 3.018135 0.000000 0.000000
											CHANNELS 3 Xrotation Yrotation Zrotation
											End Site
											{
												OFFSET -1.032700 2.767982 0.617226
											}
										}
									}
								}
								JOINT LeftHandRing1
								{
									OFFSET 8.571686 -0.031357 -2.884048
									CHANNELS 3 Xrotation Yrotation Zrotation
									JOINT LeftHandRing2
									{
										OFFSET 3.671181 0.000000 0.000000
										CHANNELS 3 Xrotation Yrotation Zrotation
										JOINT LeftHandRing3
										{
											OFFSET 2.728851 0.000000 0.000000
											CHANNELS 3 Xrotation Yrotation Zrotation
											End Site
											{
												OFFSET -0.815796 2.539223 0.577389
											}
										}
									}
								}
								JOINT LeftHandPinky1
								{
									OFFSET 7.854515 -0.675232 -5.213020
									CHANNELS 3 Xrotation Yrotation Zrotation
									JOINT LeftHandPinky2
									{
										OFFSET 3.068596 0.000000 0.000000
										CHANNELS 3 Xrotation Yrotation Zrotation
										JOINT LeftHandPinky3
										{
											OFFSET 2.396042 0.000000 0.000000
											CHANNELS 3 Xrotation Yrotation Zrotation
											End Site
											{
												OFFSET -0.524597 2.267998 0.567429
											}
										}
									}
								}
							}
							JOINT LeftSleeve
							{
								OFFSET 19.684509 -0.200119 0.476146
								CHANNELS 3 Xrotation Yrotation Zrotation
								End Site
								{
									OFFSET -0.031017 25.731133 -0.002868
								}
							}
						}
					}
				}
				JOINT RightShoulder
				{
					OFFSET -4.395900 7.341202 -1.870200
					CHANNELS 3 Xrotation Yrotation Zrotation
					JOINT RightArm
					{
						OFFSET -8.071453 0.936867 -2.181100
						CHANNELS 3 Xrotation Yrotation Zrotation
						JOINT RightForeArm
						{
							OFFSET -31.272011 0.000000 0.000000
							CHANNELS 3 Xrotation Yrotation Zrotation
							JOINT RightHand
							{
								OFFSET -31.771019 0.000000 0.000000
								CHANNELS 3 Xrotation Yrotation Zrotation
								JOINT RightHandThumb1
								{
									OFFSET -2.886520 -2.557808 4.416626
									CHANNELS 3 Xrotation Yrotation Zrotation
									JOINT RightHandThumb2
									{
										OFFSET -2.371056 -1.368927 1.368928
										CHANNELS 3 Xrotation Yrotation Zrotation
										JOINT RightHandThumb3
										{
											OFFSET -2.243362 -1.295204 1.295206
											CHANNELS 3 Xrotation Yrotation Zrotation
											End Site
											{
												OFFSET 0.332642 2.876938 0.020047
											}
										}
									}
								}
								JOINT RightHandIndex1
								{
									OFFSET -8.568993 -0.641953 3.120017
									CHANNELS 3 Xrotation Yrotation Zrotation
									JOINT RightHandIndex2
									{
										OFFSET -3.348518 0.000000 0.000000
										CHANNELS 3 Xrotation Yrotation Zrotation
										JOINT RightHandIndex3
										{
											OFFSET -3.314552 0.000000 0.000000
											CHANNELS 3 Xrotation Yrotation Zrotation
											End Site
											{
												OFFSET 1.032898 3.075478 0.678804
											}
										}
									}
								}
								JOINT RightHandMiddle1
								{
									OFFSET -8.124588 0.000000 0.000000
									CHANNELS 3 Xrotation Yrotation Zrotation
									JOINT RightHandMiddle2
									{
										OFFSET -4.166275 0.000000 0.000000
										CHANNELS 3 Xrotation Yrotation Zrotation
										JOINT RightHandMiddle3
										{
											OFFSET -3.018097 0.000000 0.000000
											CHANNELS 3 Xrotation Yrotation Zrotation
											End Site
											{
												OFFSET 1.032700 2.767937 0.617197
											}
										}
									}
								}
								JOINT RightHandRing1
								{
									OFFSET -8.571747 -0.031349 -2.884061
									CHANNELS 3 Xrotation Yrotation Zrotation
									JOINT RightHandRing2
									{
										OFFSET -3.671204 0.000000 0.000000
										CHANNELS 3 Xrotation Yrotation Zrotation
										JOINT RightHandRing3
										{
											OFFSET -2.728874 0.000000 0.000000
											CHANNELS 3 Xrotation Yrotation Zrotation
											End Site
											{
												OFFSET 0.815804 2.539261 0.577413
											}
										}
									}
								}
								JOINT RightHandPinky1
								{
									OFFSET -7.854561 -0.675247 -5.212970
									CHANNELS 3 Xrotation Yrotation Zrotation
									JOINT RightHandPinky2
									{
										OFFSET -3.068550 0.000000 0.000000
										CHANNELS 3 Xrotation Yrotation Zrotation
										JOINT RightHandPinky3
										{
											OFFSET -2.395981 0.000000 0.000000
											CHANNELS 3 Xrotation Yrotation Zrotation
											End Site
											{
												OFFSET 0.524605 2.267952 0.567413
											}
										}
									}
								}
							}
							JOINT RightSleeve
							{
								OFFSET -19.684753 -0.200165 0.476065
								CHANNELS 3 Xrotation Yrotation Zrotation
								End Site
								{
									OFFSET 0.031342 25.731255 -0.002917
								}
							}
						}
					}
				}
				JOINT Hood
				{
					OFFSET 0.369700 14.447800 -5.317800
					CHANNELS 3 Xrotation Yrotation Zrotation
					JOINT Hood1
					{
						OFFSET 0.001700 -5.553802 -5.895100
						CHANNELS 3 Xrotation Yrotation Zrotation
						JOINT Hood2
						{
							OFFSET -0.000200 -8.380501 0.763600
							CHANNELS 3 Xrotation Yrotation Zrotation
							End Site
							{
								OFFSET 0.000000 8.415215 0.000000
							}
						}
					}
				}
				JOINT Left_Breast
				{
					OFFSET 5.682500 3.120102 3.188800
					CHANNELS 3 Xrotation Yrotation Zrotation
					End Site
					{
						OFFSET 0.000000 10.528564 0.000000
					}
				}
				JOINT Right_Breast
				{
					OFFSET -4.947600 3.120102 3.185900
					CHANNELS 3 Xrotation Yrotation Zrotation
					End Site
					{
						OFFSET 0.000000 10.528564 0.000000
					}
				}
				JOINT Whistle
				{
					OFFSET 0.368200 11.471298 0.095400
					CHANNELS 3 Xrotation Yrotation Zrotation
					JOINT Whistle1
					{
						OFFSET -0.002000 -6.349899 7.479800
						CHANNELS 3 Xrotation Yrotation Zrotation
						JOINT Whistle2
						{
							OFFSET -0.001300 -8.217598 4.717600
							CHANNELS 3 Xrotation Yrotation Zrotation
							End Site
							{
								OFFSET 0.000000 9.475479 0.000000
							}
						}
					}
				}
			}
		}
		JOINT Belly
		{
			OFFSET 0.212400 1.593002 3.163700
			CHANNELS 3 Xrotation Yrotation Zrotation
			End Site
			{
				OFFSET 0.000000 7.496635 0.000000
			}
		}
	}
	JOINT FitGrandmaFacialAnim_Joint
	{
		OFFSET 1.150000 -86.211197 -1.220100
		CHANNELS 3 Xrotation Yrotation Zrotation
		End Site
		{
			OFFSET 0.000000 31.666618 0.000000
		}
	}
}
MOTION
Frames: 4
Frame Time: 0.016667
-1.035294 79.191658 1.964798 33.891115 -22.994141 8.110734 -0.000002 -0.000001 0.000000 -73.024162 8.905370 19.583366 98.528935 5.139822 -4.839042 -0.082754 -5.175953 0.998775 -0.000003 0.000000 0.000000 0.000001 0.000000 0.000000 0.000002 0.000000 0.000000 -43.146783 5.530082 4.747682 44.363650 4.403341 0.485952 -21.744549 -1.891158 -0.302612 -0.000001 -0.000001 0.000001 -0.000001 -0.000001 0.000001 -0.000001 -0.000002 -0.000000 11.691506 3.399944 -3.014947 5.818548 0.259717 -2.809621 -10.931789 0.793514 3.196295 0.763623 9.298923 -8.496115 -32.953129 4.763627 2.047907 -0.000000 0.000000 0.000000 -0.000000 0.000000 0.000000 -0.000000 0.000000 0.000000 -0.000000 0.000000 0.000000 -0.000000 0.000000 0.000000 -0.000000 0.000000 0.000000 -0.000000 0.000000 0.000000 -0.000000 0.000000 0.000000 -0.000000 0.000000 0.000000 -0.000000 0.000000 0.000000 -0.000000 0.000000 0.000000 -0.000000 0.000000 0.000000 -0.000000 0.000000 0.000000 -0.000000 0.000000 0.000000 -0.000000 0.000000 0.000000 -0.000000 0.000000 0.000000 -0.000000 0.000000 0.000000 -0.000000 0.000000 0.000000 -0.000000 0.000000 0.000000 1.952236 -2.052958 14.106887 -76.027327 17.447735 -39.907627 -79.531208 -83.559530 -82.552596 -40.469755 -0.152829 8.942059 17.551570 -5.699210 -12.932258 10.850566 26.127724 8.644742 0.000002 0.000003 -0.000003 13.980889 1.201558 -55.004371 0.370802 1.161694 -65.441880 0.000002 0.000001 0.000001 7.504737 1.174522 -63.778524 1.807869 1.475648 -64.568025 0.000000 -0.000003 -0.000000 8.574322 2.179168 -75.148972 -0.207610 1.009302 -57.855063 -0.000001 0.000002 -0.000003 10.030076 13.637135 -84.750230 0.877104 0.062331 -64.595469 0.000001 -0.000002 0.000001 0.000003 0.000002 -0.000003 4.985253 19.106681 8.633898 -22.095488 5.720152 42.521326 29.456680 69.546899 -32.206217 0.332163 10.304453 -5.342115 18.329294 0.310715 -9.071065 -2.198359 -31.113547 7.361206 0.000001 0.000002 0.000001 2.375164 -3.668631 30.846999 -2.142090 -2.481836 41.032911 -0.000001 0.000001 0.000002 -1.972135 -5.717193 36.022022 0.289282 -5.113427 49.347946 -0.000001 0.000003 -0.000001 -3.257764 -8.572678 37.723336 4.044293 -4.071795 59.216914 0.000001 -0.000001 -0.000005 -6.464737 -11.358815 54.840873 10.730545 -2.567708 66.401808 -0.000003 -0.000003 0.000001 -0.000002 0.000001 0.000002 -0.000000 -0.000002 0.000001 -0.000000 -0.000002 0.000001 -0.000000 -0.000002 0.000001 -0.000000 -0.000002 0.000001 -0.000000 -0.000002 0.000001 -0.000000 -0.000002 0.000000 -0.000004 -0.000001 -0.000000 -0.000004 -0.000001 -0.000000 0.000001 -0.000000 0.000000 -0.000002 -0.000001 0.000000 
-1.308028 79.756660 7.646309 31.979861 -21.674816 7.610059 -0.000003 0.000001 -0.000001 -76.816774 7.773750 19.120276 95.257267 5.475338 -4.313352 0.059113 -5.045847 -0.235163 -0.000001 0.000000 0.000000 0.000001 0.000000 0.000000 -0.000001 -0.000000 0.000000 -36.831915 4.991726 2.278097 43.803977 3.156847 0.177809 -19.896899 -4.860653 2.532511 0.000000 0.000001 -0.000000 0.000001 -0.000000 0.000000 -0.000001 -0.000001 -0.000001 13.576949 3.880570 -4.899778 4.946179 0.681148 -1.790056 -10.657562 0.747526 3.502205 -0.964050 8.765074 -7.245214 -30.630028 4.634938 1.209476 0.000000 0.000000 0.000000 0.000000 0.000000 0.000000 0.000000 0.000000 0.000000 0.000000 0.000000 0.000000 0.000000 0.000000 0.000000 0.000000 0.000000 0.000000 0.000000 0.000000 0.000000 0.000000 0.000000 0.000000 0.000000 0.000000 0.000000 0.000000 0.000000 0.000000 0.000000 0.000000 0.000000 0.000000 0.000000 0.000000 0.000000 0.000000 0.000000 0.000000 0.000000 0.000000 0.000000 0.000000 0.000000 0.000000 0.000000 0.000000 0.000000 0.000000 0.000000 0.000000 0.000000 0.000000 0.000000 0.000000 0.000000 1.850595 -1.530463 12.872929 -74.590228 15.606161 -37.843370 -144.942092 -87.295637 -147.418514 -48.350868 2.730451 12.545433 17.551568 -5.699214 -12.932258 10.850562 26.127724 8.644747 0.000001 -0.000001 -0.000001 13.980887 1.201558 -55.004364 0.370796 1.161696 -65.441887 0.000007 0.000002 0.000003 7.504738 1.174516 -63.778524 1.807876 1.475647 -64.568019 -0.000007 -0.000001 -0.000004 8.574320 2.179166 -75.148972 -0.207609 1.009306 -57.855063 -0.000000 0.000003 -0.000003 10.030075 13.637134 -84.750230 0.877106 0.062327 -64.595476 -0.000001 -0.000002 -0.000002 -0.000002 0.000001 -0.000000 4.599378 20.091985 7.394488 -22.228637 2.483214 40.725908 73.013875 78.448752 -77.195768 3.828289 11.723709 0.088469 16.754302 0.369575 -8.461185 -1.642452 -29.135760 6.903578 -0.000001 0.000001 -0.000002 2.171754 -3.424927 28.919431 -2.060037 -2.222325 38.754265 -0.000001 0.000001 -0.000000 -1.682254 -5.183755 33.477380 0.193937 -4.713273 48.099654 -0.000002 -0.000003 -0.000006 -2.821116 -8.304366 35.271169 3.590741 -3.876634 56.964918 -0.000000 -0.000002 -0.000001 -6.055240 -10.420634 51.003960 9.770721 -2.646420 64.230375 -0.000003 0.000003 -0.000000 -0.000004 -0.000000 0.000000 0.000002 0.000000 0.000000 0.000002 0.000000 0.000000 0.000002 0.000000 0.000000 0.000002 0.000000 0.000000 0.000002 0.000000 0.000000 0.000002 0.000000 0.000000 -0.000002 0.000001 0.000000 -0.000002 0.000001 0.000000 -0.000004 0.000001 -0.000001 -0.000003 0.000001 -0.000001 
-1.614383 80.353668 13.432587 30.035490 -20.346968 7.210056 -0.000001 0.000001 -0.000000 -79.603048 7.098121 18.315678 90.094491 6.123303 -3.843422 0.325913 -4.868718 -1.607863 0.000001 -0.000000 0.000000 0.000001 -0.000000 0.000000 -0.000005 -0.000000 -0.000000 -29.141480 4.354076 -0.141026 40.701084 2.250046 -0.138476 -16.465976 -8.184582 5.981763 -0.000001 0.000001 -0.000000 -0.000000 0.000001 -0.000001 -0.000000 -0.000003 0.000001 15.551999 4.491494 -7.072349 4.029727 1.227238 -0.599442 -10.285317 0.762046 3.923220 -2.852081 7.836786 -6.163744 -28.170352 4.307468 0.283356 0.000000 -0.000000 -0.000000 0.000000 -0.000000 -0.000000 0.000000 -0.000000 -0.000000 0.000000 -0.000000 -0.000000 0.000000 -0.000000 -0.000000 0.000000 -0.000000 -0.000000 0.000000 -0.000000 -0.000000 0.000000 -0.000000 -0.000000 0.000000 -0.000000 -0.000000 0.000000 -0.000000 -0.000000 0.000000 -0.000000 -0.000000 0.000000 -0.000000 -0.000000 0.000000 -0.000000 -0.000000 0.000000 -0.000000 -0.000000 0.000000 -0.000000 -0.000000 0.000000 -0.000000 -0.000000 0.000000 -0.000000 -0.000000 0.000000 -0.000000 -0.000000 0.000000 -0.000000 -0.000000 1.718143 -1.109382 11.529362 -73.265486 13.679090 -35.280546 -210.645698 -84.574490 -212.479836 -56.352961 4.804352 15.957432 17.551570 -5.699213 -12.932258 10.850564 26.127726 8.644742 0.000001 0.000002 -0.000001 13.980887 1.201555 -55.004367 0.370797 1.161695 -65.441880 -0.000001 -0.000001 0.000002 7.504735 1.174517 -63.778517 1.807871 1.475646 -64.568019 -0.000005 -0.000003 -0.000000 8.574320 2.179164 -75.148972 -0.207614 1.009303 -57.855063 -0.000000 0.000001 0.000000 10.030077 13.637133 -84.750230 0.877106 0.062330 -64.595469 0.000001 -0.000000 0.000002 -0.000002 -0.000001 -0.000001 4.280029 20.150728 5.717931 -22.945329 2.376923 38.931470 122.509715 76.439803 -127.618150 5.357759 7.052867 3.426947 15.011011 0.421158 -7.763762 -1.045720 -26.961166 6.336291 -0.000002 -0.000001 -0.000001 1.966059 -3.143411 26.765512 -1.949419 -1.946070 36.208814 0.000002 0.000000 0.000010 -1.319221 -4.630097 30.634662 0.107765 -4.266997 46.698731 -0.000001 0.000002 -0.000003 -2.322608 -8.050479 32.533058 3.109248 -3.624326 54.449961 -0.000002 -0.000006 -0.000002 -5.502870 -9.469298 46.733196 8.715330 -2.657324 61.799272 0.000001 -0.000001 0.000001 -0.000007 -0.000000 -0.000000 -0.000002 -0.000000 0.000000 -0.000002 -0.000000 0.000000 -0.000002 -0.000000 0.000000 -0.000002 -0.000000 0.000000 -0.000002 -0.000000 0.000000 -0.000002 -0.000000 0.000001 -0.000002 0.000000 -0.000000 -0.000002 0.000000 -0.000000 0.000003 0.000000 0.000001 -0.000001 0.000001 -0.000000 
-1.954373 80.854362 19.184216 28.077741 -19.025299 6.897231 0.000000 -0.000000 0.000000 -80.761926 7.020512 17.149615 83.118403 7.068310 -3.370705 0.536098 -4.666156 -2.975571 -0.000002 -0.000000 -0.000000 -0.000002 0.000001 0.000000 0.000002 -0.000000 0.000000 -20.888211 3.661692 -2.292511 36.147847 1.165509 -0.409917 -11.568962 -10.868009 9.475399 -0.000000 0.000000 0.000000 -0.000004 0.000000 0.000001 -0.000000 0.000001 0.000000 17.623333 5.201517 -9.396204 3.077283 1.862035 0.679605 -9.831928 0.832859 4.395546 -4.861705 6.567924 -5.254666 -25.614990 3.813658 -0.693865 -0.000001 -0.000000 0.000000 -0.000001 -0.000000 0.000000 -0.000001 -0.000000 0.000000 -0.000001 -0.000000 0.000000 -0.000001 -0.000000 0.000000 -0.000001 -0.000000 0.000000 -0.000001 -0.000000 0.000000 -0.000001 -0.000000 0.000000 -0.000001 -0.000000 0.000000 -0.000001 -0.000000 0.000000 -0.000001 -0.000000 0.000000 -0.000001 -0.000000 0.000000 -0.000001 -0.000000 0.000000 -0.000001 -0.000000 0.000000 -0.000001 -0.000000 0.000000 -0.000001 -0.000000 0.000000 -0.000001 -0.000000 0.000000 -0.000001 -0.000000 0.000000 -0.000001 -0.000000 0.000000 1.645548 -1.000239 9.830197 -71.214503 12.734340 -32.673596 -207.556130 -81.794842 -208.881938 -60.947663 5.792318 18.734765 17.551570 -5.699210 -12.932257 10.850564 26.127721 8.644743 -0.000001 0.000002 -0.000002 13.980890 1.201558 -55.004367 0.370800 1.161692 -65.441887 -0.000002 0.000001 -0.000001 7.504737 1.174518 -63.778524 1.807878 1.475645 -64.568025 -0.000003 -0.000001 0.000000 8.574319 2.179164 -75.148972 -0.207610 1.009304 -57.855063 0.000003 0.000000 -0.000003 10.030076 13.637128 -84.750230 0.877106 0.062331 -64.595469 -0.000002 -0.000003 -0.000005 0.000004 0.000001 -0.000003 3.982597 19.709892 3.730240 -24.454307 4.678992 37.090523 140.273439 71.780425 -145.773381 5.361430 -0.110381 4.820070 13.153467 0.459014 -6.994881 -0.426192 -24.662066 5.664066 0.000000 -0.000000 -0.000000 1.770441 -2.830781 24.446794 -1.805893 -1.664665 33.469372 -0.000002 0.000001 0.000007 -0.886111 -4.086493 27.574575 0.038917 -3.788285 45.183894 0.000000 0.000000 -0.000003 -1.777065 -7.831445 29.587724 2.625438 -3.317448 51.745073 -0.000000 0.000001 -0.000002 -4.811199 -8.568003 42.150689 7.604498 -2.579996 59.179238 -0.000003 -0.000003 0.000000 0.000002 0.000000 -0.000000 0.000001 0.000001 -0.000000 0.000001 0.000001 -0.000000 0.000001 0.000001 -0.000000 0.000001 0.000001 -0.000000 0.000001 0.000001 -0.000000 0.000001 0.000001 0.000000 -0.000002 -0.000000 0.000000 -0.000002 -0.000000 0.000000 0.000001 0.000000 -0.000000 0.000000 -0.000000 0.000000 
